<svg width="800" height="800" viewBox="0 0 800 800" fill="none" xmlns="http://www.w3.org/2000/svg">
<path fill-rule="evenodd" clip-rule="evenodd" d="M400 800C620.914 800 800 620.914 800 400C800 179.086 620.914 0 400 0C179.086 0 0 179.086 0 400C0 620.914 179.086 800 400 800ZM244.151 252.093C237.364 245.31 228.16 241.5 218.562 241.5H146.188C126.236 241.5 110 257.703 110 277.667V530.833C110 550.797 126.236 567 146.188 567H218.562C228.16 567 237.364 563.19 244.151 556.407C250.937 549.624 254.75 540.425 254.75 530.833V277.667C254.75 268.075 250.937 258.876 244.151 252.093ZM461.276 143.593C454.489 136.81 445.285 133 435.688 133H363.312C343.361 133 327.125 149.203 327.125 169.167V530.833C327.125 550.797 343.361 567 363.312 567H435.688C445.285 567 454.489 563.19 461.276 556.407C468.062 549.624 471.875 540.425 471.875 530.833V169.167C471.875 159.575 468.062 150.376 461.276 143.593ZM678.401 324.426C671.614 317.644 662.41 313.833 652.812 313.833H580.438C570.84 313.833 561.636 317.644 554.849 324.426C548.063 331.209 544.25 340.408 544.25 350V530.833C544.25 540.425 548.063 549.624 554.849 556.407C561.636 563.19 570.84 567 580.438 567H652.812C662.41 567 671.614 563.19 678.401 556.407C685.187 549.624 689 540.425 689 530.833V350C689 340.408 685.187 331.209 678.401 324.426Z" fill="white"/>
</svg>
